<svg xmlns="http://www.w3.org/2000/svg" viewBox="0 0 48 48"><defs><linearGradient y1="545.8" x2="0" y2="517.8" gradientUnits="userSpaceOnUse"><stop stop-color="#3889e9"/><stop offset="1" stop-color="#5ea5fb"/></linearGradient><linearGradient id="0" gradientUnits="userSpaceOnUse" x1="400.51" y1="546.07" x2="400.7" y2="517.77"><stop stop-color="#2f3f47"/><stop offset="1" stop-color="#425963"/></linearGradient></defs><g transform="matrix(1.71429 0 0 1.71429-662.7-887.66)"><circle r="14" cy="531.8" cx="400.57" fill="url(#0)"/><circle cx="400.57" cy="531.8" r="14" fill="#5ea5fb" fill-opacity="0"/><g fill="#fff" fill-opacity=".847" transform="matrix(.0168-.01734.01734.0168 390.25 532.01)"><path d="m562.04 0c-170.69 0-341.39 0-512.08 0-27.591 0-49.959 22.368-49.959 49.959 0 170.69 0 341.39 0 512.08 0 27.591 22.368 49.959 49.959 49.959 170.69 0 341.39 0 512.08 0 27.591 0 49.959-22.368 49.959-49.959 0-170.69 0-341.39 0-512.08 0-27.591-22.368-49.959-49.959-49.959m-512.08 37.469c6.898 0 12.49 5.592 12.49 12.49 0 6.898-5.592 12.49-12.49 12.49-6.898 0-12.49-5.592-12.49-12.49 0-6.898 5.592-12.49 12.49-12.49zm0 537.06c-6.898 0-12.49-5.592-12.49-12.49 0-6.898 5.592-12.49 12.49-12.49 6.898 0 12.49 5.592 12.49 12.49 0 6.898-5.592 12.49-12.49 12.49m256.04-19.984c-137.27 0-248.55-111.28-248.55-248.55 0-137.27 111.28-248.55 248.55-248.55 137.27 0 248.55 111.28 248.55 248.55 0 137.27-111.28 248.55-248.55 248.55m256.04 19.984c-6.898 0-12.49-5.592-12.49-12.49 0-6.898 5.592-12.49 12.49-12.49 6.898 0 12.49 5.592 12.49 12.49 0 6.898-5.592 12.49-12.49 12.49zm0-512.08c-6.898 0-12.49-5.592-12.49-12.49 0-6.898 5.592-12.49 12.49-12.49 6.898 0 12.49 5.592 12.49 12.49 0 6.898-5.592 12.49-12.49 12.49"/><path d="m524.98 260.92c-1.238-6.01-3.819-10.307-8.554-14.218-37.84-31.27-90.32-29.17-157.43 6.305-4.38-4.38-9.121-8.08-14.434-11.27 46.26-41.499 88.42-58.921 126.5-52.27 11.225 1.961 18.998-10.901 12.04-19.926-15.437-20.03-33.01-36.35-54.13-50.26-5.13-3.378-9.989-4.586-16.1-4-48.869 4.645-84.49 43.24-106.86 115.78-6.195 0-12.165.734-18.18 2.237 3.365-62.05 20.86-104.19 52.49-126.41 9.324-6.55 5.725-21.14-5.574-22.607-25.08-3.251-49.04-2.363-73.813 2.737-6.01 1.238-10.307 3.819-14.218 8.554-31.27 37.84-29.17 90.32 6.305 157.43-4.38 4.38-8.08 9.121-11.27 14.434-41.499-46.26-58.921-88.42-52.27-126.5 1.961-11.225-10.901-18.998-19.926-12.04-20.03 15.437-36.35 33.01-50.26 54.13-3.378 5.13-4.586 9.989-4 16.1 4.645 48.869 43.24 84.49 115.78 106.86 0 6.195.734 12.165 2.237 18.18-62.05-3.365-104.19-20.86-126.41-52.49-6.55-9.324-21.14-5.725-22.607 5.574-3.251 25.08-2.363 49.04 2.737 73.813 1.238 6.01 3.819 10.307 8.554 14.218 37.84 31.27 90.32 29.17 157.43-6.305 4.38 4.38 9.121 8.08 14.434 11.27-46.26 41.499-88.42 58.921-126.5 52.27-11.225-1.961-18.998 10.901-12.04 19.926 15.437 20.04 33.01 36.35 54.13 50.26 5.13 3.378 9.989 4.586 16.1 4 48.869-4.645 84.49-43.24 106.86-115.78 6.195 0 12.165-.734 18.18-2.238-3.365 62.05-20.86 104.19-52.49 126.41-9.324 6.55-5.725 21.14 5.574 22.607 25.08 3.251 49.04 2.363 73.813-2.737 6.01-1.238 10.307-3.819 14.218-8.554 31.27-37.84 29.17-90.32-6.305-157.43 4.38-4.38 8.08-9.121 11.27-14.434 41.499 46.26 58.921 88.42 52.27 126.5-1.961 11.225 10.901 18.998 19.926 12.04 20.04-15.437 36.35-33.01 50.26-54.13 3.378-5.13 4.586-9.989 4-16.1-4.645-48.869-43.24-84.49-115.78-106.86 0-6.195-.734-12.165-2.237-18.18 62.05 3.365 104.19 20.86 126.41 52.49 6.55 9.324 21.14 5.725 22.607-5.574 3.251-25.08 2.363-49.04-2.737-73.811m-218.98 107.53c-34.489 0-62.45-27.96-62.45-62.45 0-34.489 27.96-62.45 62.45-62.45 34.489 0 62.45 27.96 62.45 62.45 0 34.489-27.96 62.45-62.45 62.45"/></g></g></svg>